<svg height="1630" width="720" xmlns="http://www.w3.org/2000/svg">
<rect height="1630" fill="#555" width="720"></rect>
<text fill="#7f7" font-family="Courier New" font-size="12" xml:space="preserve">
<tspan x="10" y="26">14 megabytes installed</tspan>
<tspan x="10" y="42"></tspan>
<tspan x="10" y="58">node_modules</tspan>
<tspan x="10" y="74">└─┬ express-request-proxy@2.0.0 </tspan>
<tspan x="10" y="90">  ├── async@1.5.2 </tspan>
<tspan x="10" y="106">  ├─┬ body-parser@1.17.1 </tspan>
<tspan x="10" y="122">  │ ├── bytes@2.4.0 </tspan>
<tspan x="10" y="138">  │ ├── content-type@1.0.2 </tspan>
<tspan x="10" y="154">  │ ├── debug@2.6.1 </tspan>
<tspan x="10" y="170">  │ ├── depd@1.1.0 </tspan>
<tspan x="10" y="186">  │ ├─┬ http-errors@1.6.1 </tspan>
<tspan x="10" y="202">  │ │ ├── inherits@2.0.3 </tspan>
<tspan x="10" y="218">  │ │ ├── setprototypeof@1.0.3 </tspan>
<tspan x="10" y="234">  │ │ └── statuses@1.3.1 </tspan>
<tspan x="10" y="250">  │ ├── iconv-lite@0.4.15 </tspan>
<tspan x="10" y="266">  │ ├─┬ on-finished@2.3.0 </tspan>
<tspan x="10" y="282">  │ │ └── ee-first@1.1.1 </tspan>
<tspan x="10" y="298">  │ ├── qs@6.4.0 </tspan>
<tspan x="10" y="314">  │ └─┬ raw-body@2.2.0 </tspan>
<tspan x="10" y="330">  │   └── unpipe@1.0.0 </tspan>
<tspan x="10" y="346">  ├─┬ camel-case@1.2.2 </tspan>
<tspan x="10" y="362">  │ ├─┬ sentence-case@1.1.3 </tspan>
<tspan x="10" y="378">  │ │ └── lower-case@1.1.4 </tspan>
<tspan x="10" y="394">  │ └── upper-case@1.1.3 </tspan>
<tspan x="10" y="410">  ├─┬ debug@2.6.3 </tspan>
<tspan x="10" y="426">  │ └── ms@0.7.2 </tspan>
<tspan x="10" y="442">  ├── lodash@4.17.4 </tspan>
<tspan x="10" y="458">  ├─┬ lru-cache@4.0.2 </tspan>
<tspan x="10" y="474">  │ ├── pseudomap@1.0.2 </tspan>
<tspan x="10" y="490">  │ └── yallist@2.1.2 </tspan>
<tspan x="10" y="506">  ├─┬ path-to-regexp@1.7.0 </tspan>
<tspan x="10" y="522">  │ └── isarray@0.0.1 </tspan>
<tspan x="10" y="538">  ├─┬ request@2.81.0 </tspan>
<tspan x="10" y="554">  │ ├── aws-sign2@0.6.0 </tspan>
<tspan x="10" y="570">  │ ├── aws4@1.6.0 </tspan>
<tspan x="10" y="586">  │ ├── caseless@0.12.0 </tspan>
<tspan x="10" y="602">  │ ├─┬ combined-stream@1.0.5 </tspan>
<tspan x="10" y="618">  │ │ └── delayed-stream@1.0.0 </tspan>
<tspan x="10" y="634">  │ ├── extend@3.0.0 </tspan>
<tspan x="10" y="650">  │ ├── forever-agent@0.6.1 </tspan>
<tspan x="10" y="666">  │ ├─┬ form-data@2.1.4 </tspan>
<tspan x="10" y="682">  │ │ └── asynckit@0.4.0 </tspan>
<tspan x="10" y="698">  │ ├─┬ har-validator@4.2.1 </tspan>
<tspan x="10" y="714">  │ │ ├─┬ ajv@4.11.7 </tspan>
<tspan x="10" y="730">  │ │ │ ├── co@4.6.0 </tspan>
<tspan x="10" y="746">  │ │ │ └─┬ json-stable-stringify@1.0.1 </tspan>
<tspan x="10" y="762">  │ │ │   └── jsonify@0.0.0 </tspan>
<tspan x="10" y="778">  │ │ └── har-schema@1.0.5 </tspan>
<tspan x="10" y="794">  │ ├─┬ hawk@3.1.3 </tspan>
<tspan x="10" y="810">  │ │ ├── boom@2.10.1 </tspan>
<tspan x="10" y="826">  │ │ ├── cryptiles@2.0.5 </tspan>
<tspan x="10" y="842">  │ │ ├── hoek@2.16.3 </tspan>
<tspan x="10" y="858">  │ │ └── sntp@1.0.9 </tspan>
<tspan x="10" y="874">  │ ├─┬ http-signature@1.1.1 </tspan>
<tspan x="10" y="890">  │ │ ├── assert-plus@0.2.0 </tspan>
<tspan x="10" y="906">  │ │ ├─┬ jsprim@1.4.0 </tspan>
<tspan x="10" y="922">  │ │ │ ├── assert-plus@1.0.0 </tspan>
<tspan x="10" y="938">  │ │ │ ├── extsprintf@1.0.2 </tspan>
<tspan x="10" y="954">  │ │ │ ├── json-schema@0.2.3 </tspan>
<tspan x="10" y="970">  │ │ │ └── verror@1.3.6 </tspan>
<tspan x="10" y="986">  │ │ └─┬ sshpk@1.13.0 </tspan>
<tspan x="10" y="1002">  │ │   ├── asn1@0.2.3 </tspan>
<tspan x="10" y="1018">  │ │   ├── assert-plus@1.0.0 </tspan>
<tspan x="10" y="1034">  │ │   ├── bcrypt-pbkdf@1.0.1 </tspan>
<tspan x="10" y="1050">  │ │   ├─┬ dashdash@1.14.1 </tspan>
<tspan x="10" y="1066">  │ │   │ └── assert-plus@1.0.0 </tspan>
<tspan x="10" y="1082">  │ │   ├── ecc-jsbn@0.1.1 </tspan>
<tspan x="10" y="1098">  │ │   ├─┬ getpass@0.1.6 </tspan>
<tspan x="10" y="1114">  │ │   │ └── assert-plus@1.0.0 </tspan>
<tspan x="10" y="1130">  │ │   ├── jodid25519@1.0.2 </tspan>
<tspan x="10" y="1146">  │ │   ├── jsbn@0.1.1 </tspan>
<tspan x="10" y="1162">  │ │   └── tweetnacl@0.14.5 </tspan>
<tspan x="10" y="1178">  │ ├── is-typedarray@1.0.0 </tspan>
<tspan x="10" y="1194">  │ ├── isstream@0.1.2 </tspan>
<tspan x="10" y="1210">  │ ├── json-stringify-safe@5.0.1 </tspan>
<tspan x="10" y="1226">  │ ├─┬ mime-types@2.1.15 </tspan>
<tspan x="10" y="1242">  │ │ └── mime-db@1.27.0 </tspan>
<tspan x="10" y="1258">  │ ├── oauth-sign@0.8.2 </tspan>
<tspan x="10" y="1274">  │ ├── performance-now@0.2.0 </tspan>
<tspan x="10" y="1290">  │ ├── safe-buffer@5.0.1 </tspan>
<tspan x="10" y="1306">  │ ├── stringstream@0.0.5 </tspan>
<tspan x="10" y="1322">  │ ├─┬ tough-cookie@2.3.2 </tspan>
<tspan x="10" y="1338">  │ │ └── punycode@1.4.1 </tspan>
<tspan x="10" y="1354">  │ ├── tunnel-agent@0.6.0 </tspan>
<tspan x="10" y="1370">  │ └── uuid@3.0.1 </tspan>
<tspan x="10" y="1386">  ├─┬ simple-errors@1.0.1 </tspan>
<tspan x="10" y="1402">  │ └─┬ errno@0.1.4 </tspan>
<tspan x="10" y="1418">  │   └── prr@0.0.0 </tspan>
<tspan x="10" y="1434">  ├─┬ through2@2.0.3 </tspan>
<tspan x="10" y="1450">  │ ├─┬ readable-stream@2.2.9 </tspan>
<tspan x="10" y="1466">  │ │ ├── buffer-shims@1.0.0 </tspan>
<tspan x="10" y="1482">  │ │ ├── core-util-is@1.0.2 </tspan>
<tspan x="10" y="1498">  │ │ ├── isarray@1.0.0 </tspan>
<tspan x="10" y="1514">  │ │ ├── process-nextick-args@1.0.7 </tspan>
<tspan x="10" y="1530">  │ │ ├── string_decoder@1.0.0 </tspan>
<tspan x="10" y="1546">  │ │ └── util-deprecate@1.0.2 </tspan>
<tspan x="10" y="1562">  │ └── xtend@4.0.1 </tspan>
<tspan x="10" y="1578">  ├─┬ type-is@1.6.15 </tspan>
<tspan x="10" y="1594">  │ └── media-typer@0.3.0 </tspan>
<tspan x="10" y="1610">  └── url-join@0.0.1</tspan>
</text>
</svg>
